<svg width="16" height="16" viewBox="0 0 16 16" fill="none" xmlns="http://www.w3.org/2000/svg">
<g id="icons8-lixo-480 1">
<path id="Vector" d="M7.13362 2.15239C7.06915 2.15151 7.00514 2.16355 6.94533 2.18781C6.88551 2.21208 6.83107 2.24808 6.78517 2.29373C6.73927 2.33938 6.70282 2.39378 6.67794 2.45375C6.65307 2.51372 6.64026 2.57808 6.64026 2.64308H3.72667C3.66218 2.64217 3.59814 2.65418 3.53829 2.67843C3.47844 2.70267 3.42397 2.73867 3.37804 2.78433C3.33211 2.82998 3.29564 2.88439 3.27075 2.94438C3.24585 3.00437 3.23303 3.06875 3.23303 3.13378C3.23303 3.19881 3.24585 3.26319 3.27075 3.32318C3.29564 3.38317 3.33211 3.43758 3.37804 3.48324C3.42397 3.52889 3.47844 3.56489 3.53829 3.58914C3.59814 3.61338 3.66218 3.6254 3.72667 3.62448H12.4874C12.5519 3.6254 12.6159 3.61338 12.6758 3.58914C12.7356 3.56489 12.7901 3.52889 12.836 3.48324C12.8819 3.43758 12.9184 3.38317 12.9433 3.32318C12.9682 3.26319 12.981 3.19881 12.981 3.13378C12.981 3.06875 12.9682 3.00437 12.9433 2.94438C12.9184 2.88439 12.8819 2.82998 12.836 2.78433C12.7901 2.73867 12.7356 2.70267 12.6758 2.67843C12.6159 2.65418 12.5519 2.64217 12.4874 2.64308H9.5738C9.5738 2.57808 9.56099 2.51372 9.53612 2.45375C9.51124 2.39378 9.47479 2.33938 9.42889 2.29373C9.38299 2.24808 9.32855 2.21208 9.26873 2.18781C9.20892 2.16355 9.14491 2.15151 9.08044 2.15239H7.13362ZM3.72667 4.60587V12.457C3.72667 12.9992 4.16227 13.4384 4.70008 13.4384H11.514C12.0518 13.4384 12.4874 12.9992 12.4874 12.457V4.60587H3.72667Z" fill="white"/>
</g>
</svg>
