<svg width="11" height="10" viewBox="0 0 11 10" fill="none" xmlns="http://www.w3.org/2000/svg">
<path id="Vector" d="M5.01111 0.877335C6.34908 0.877335 6.50776 0.882202 7.03644 0.905728C8.39445 0.965758 9.02877 1.59161 9.09057 2.90092C9.11479 3.41402 9.11939 3.56815 9.11939 4.86773C9.11939 6.16771 9.11438 6.32143 9.09057 6.83453C9.02835 8.14262 8.3957 8.7697 7.03644 8.82973C6.50776 8.85325 6.34991 8.85812 5.01111 8.85812C3.67314 8.85812 3.51446 8.85325 2.9862 8.82973C1.62485 8.76929 0.99387 8.1406 0.932067 6.83413C0.907846 6.32103 0.902835 6.1673 0.902835 4.86732C0.902835 3.56775 0.908264 3.41402 0.932067 2.90052C0.994288 1.59161 1.62694 0.965352 2.9862 0.905322C3.51488 0.882202 3.67314 0.877335 5.01111 0.877335ZM5.01111 0C3.65018 0 3.4798 0.00567854 2.94528 0.0292039C1.12541 0.110326 0.114003 1.09109 0.0304843 2.86036C0.0058463 3.37995 0 3.54544 0 4.86732C0 6.18921 0.0058463 6.3551 0.0300667 6.87428C0.113585 8.64193 1.12332 9.62432 2.94486 9.70544C3.4798 9.72897 3.65018 9.73464 5.01111 9.73464C6.37205 9.73464 6.54284 9.72897 7.07736 9.70544C8.89556 9.62432 9.90947 8.64355 9.99174 6.87428C10.0164 6.3551 10.0222 6.18921 10.0222 4.86732C10.0222 3.54544 10.0164 3.37995 9.99216 2.86077C9.91031 1.09474 8.89932 0.110732 7.07778 0.0296095C6.54284 0.00567854 6.37205 0 5.01111 0ZM5.01111 2.36795C3.59004 2.36795 2.43791 3.48703 2.43791 4.86732C2.43791 6.24761 3.59004 7.3671 5.01111 7.3671C6.43218 7.3671 7.58432 6.24802 7.58432 4.86732C7.58432 3.48703 6.43218 2.36795 5.01111 2.36795ZM5.01111 6.48976C4.08865 6.48976 3.34074 5.76372 3.34074 4.86732C3.34074 3.97133 4.08865 3.24488 5.01111 3.24488C5.93357 3.24488 6.68148 3.97133 6.68148 4.86732C6.68148 5.76372 5.93357 6.48976 5.01111 6.48976ZM7.68621 1.68531C7.35381 1.68531 7.08446 1.94693 7.08446 2.26939C7.08446 2.59185 7.35381 2.85347 7.68621 2.85347C8.0182 2.85347 8.28713 2.59185 8.28713 2.26939C8.28713 1.94693 8.0182 1.68531 7.68621 1.68531Z" fill="white"/>
</svg>
