<svg width="233" height="30" viewBox="0 0 233 30" fill="none" xmlns="http://www.w3.org/2000/svg">
<path d="M17.9834 27.0762L17.9956 26.9175C17.9956 26.5269 17.8125 26.0508 17.4463 25.4893C17.0068 24.8179 16.5918 24.2808 16.1768 23.8657C15.2002 23.6948 14.3335 23.353 13.5767 22.8281C12.8198 22.3154 12.2217 21.6318 11.7822 20.7773C11.3428 19.9229 11.123 18.9097 11.123 17.7378V17.0054C11.123 16.749 11.0376 16.4438 10.8789 16.0654C10.7202 15.687 10.5005 15.4185 10.2441 15.2476C10.5005 15.0889 10.7202 14.8081 10.8789 14.4419C11.0376 14.0635 11.123 13.7461 11.123 13.502V12.7695C11.123 11.3901 11.416 10.2427 12.002 9.31494C12.6001 8.375 13.3936 7.6792 14.3823 7.20312C15.3711 6.72705 16.4819 6.49512 17.6904 6.49512C18.8989 6.49512 20.0098 6.72705 20.9985 7.20312C21.9873 7.6792 22.7808 8.375 23.3667 9.31494C23.9526 10.2427 24.2456 11.3901 24.2456 12.7695V13.5996C24.27 13.8804 24.3677 14.1855 24.5264 14.5151C24.6851 14.8569 24.8804 15.0889 25.1123 15.2476C24.8804 15.4062 24.6851 15.6504 24.5264 15.98C24.3677 16.3218 24.27 16.627 24.2456 16.9077V17.7378C24.2456 18.9951 23.9893 20.0693 23.4888 20.9482C22.9883 21.8394 22.3169 22.5352 21.4624 23.0356C22.207 23.585 22.7808 23.9268 23.1836 24.0732L17.9834 27.0762ZM17.6904 20.4966C18.1787 20.4966 18.5815 20.3623 18.8989 20.0815C19.2285 19.8008 19.4727 19.4102 19.6313 18.9341C19.79 18.458 19.8755 17.9331 19.8755 17.3472V17.0054C19.8755 16.749 19.79 16.4438 19.6313 16.0654C19.4727 15.687 19.2529 15.4185 18.9966 15.2476C19.2529 15.0889 19.4727 14.8081 19.6313 14.4419C19.79 14.0635 19.8755 13.7461 19.8755 13.502C19.8755 12.6841 19.8022 12.0371 19.6558 11.561C19.3384 10.5234 18.6914 9.99854 17.6904 9.99854C16.6895 9.99854 16.0303 10.5234 15.7129 11.561C15.5664 12.0371 15.5054 12.6963 15.5054 13.5264C15.5176 13.8071 15.603 14.1123 15.7617 14.4785C15.9204 14.8325 16.1279 15.0889 16.3721 15.2476C16.1279 15.4185 15.9204 15.6748 15.7617 16.0288C15.603 16.395 15.5176 16.7002 15.5054 16.981V17.3472C15.5054 17.9331 15.5786 18.458 15.7495 18.9341C15.9082 19.4102 16.1523 19.8008 16.4819 20.0815C16.7993 20.3623 17.2021 20.4966 17.6904 20.4966ZM33.1934 24C31.9849 24 30.8862 23.7681 29.8853 23.292C28.8965 22.8159 28.103 22.1201 27.5171 21.1924C26.9312 20.2524 26.6382 19.105 26.6382 17.7378V17.0054C26.6382 16.749 26.5527 16.4316 26.394 16.0654C26.2231 15.687 26.0156 15.4185 25.7593 15.2476C26.0156 15.0889 26.2231 14.8081 26.394 14.4419C26.5527 14.0635 26.6382 13.7583 26.6382 13.502V9.99854C26.6382 9.49805 26.5527 8.87549 26.394 8.13086C26.2231 7.37402 26.0156 6.83691 25.7593 6.49512H31.8872C31.6309 6.83691 31.4233 7.37402 31.2524 8.13086C31.0938 8.87549 31.0083 9.49805 31.0083 9.99854V13.5264C31.0205 13.7949 31.106 14.1123 31.2646 14.4663C31.4233 14.8203 31.6309 15.0889 31.8872 15.2476C31.6309 15.4185 31.4233 15.6748 31.2646 16.0288C31.106 16.395 31.0205 16.7002 31.0083 16.981V17.3472C31.0083 17.9331 31.0938 18.458 31.2524 18.9341C31.4111 19.4102 31.6553 19.8008 31.9849 20.0815C32.3022 20.3623 32.7051 20.4966 33.1934 20.4966C33.6816 20.4966 34.0845 20.3623 34.4141 20.0815C34.7314 19.8008 34.9756 19.4102 35.1343 18.9341C35.3052 18.458 35.3784 17.9331 35.3784 17.3472V17.0054C35.3784 16.749 35.3052 16.4438 35.1343 16.0654C34.9756 15.687 34.7559 15.4185 34.4995 15.2476C34.7559 15.0889 34.9756 14.8081 35.1343 14.4419C35.3052 14.0635 35.3784 13.7461 35.3784 13.502V9.99854C35.3784 9.49805 35.3052 8.87549 35.1343 8.13086C34.9756 7.37402 34.7681 6.83691 34.5117 6.49512H40.6396C40.3833 6.83691 40.1636 7.37402 40.0049 8.13086C39.8462 8.87549 39.7607 9.49805 39.7607 9.99854V13.5996C39.7852 13.8804 39.8706 14.1855 40.0293 14.5273C40.188 14.8569 40.3833 15.1011 40.6274 15.2476C40.3833 15.4062 40.188 15.6504 40.0293 15.98C39.8706 16.3218 39.7852 16.627 39.7607 16.9077V17.7378C39.7607 19.105 39.4678 20.2524 38.8818 21.1924C38.2837 22.1201 37.4902 22.8159 36.5015 23.292C35.5127 23.7681 34.4019 24 33.1934 24ZM54.7632 24H41.6406C41.897 23.6704 42.1045 23.1211 42.2754 22.3765C42.4341 21.6196 42.5195 20.9971 42.5195 20.4966V17.0054C42.5195 16.749 42.4341 16.4438 42.2754 16.0654C42.1045 15.687 41.897 15.4185 41.6406 15.2476C41.897 15.0889 42.1045 14.8081 42.2754 14.4419C42.4341 14.0635 42.5195 13.7461 42.5195 13.502V9.99854C42.5195 9.49805 42.4341 8.87549 42.2754 8.13086C42.1045 7.37402 41.897 6.83691 41.6406 6.49512H54.7632L53.1274 10.8774C52.7979 10.6211 52.3218 10.4136 51.6748 10.2427C51.0278 10.084 50.4541 9.99854 49.9536 9.99854H46.8896V13.502H47.7686C48.269 13.502 48.8916 13.4165 49.6362 13.2578C50.3931 13.0869 50.9302 12.8794 51.2598 12.623V17.8721C50.9302 17.6157 50.3931 17.4082 49.6362 17.2495C48.8916 17.0786 48.269 17.0054 47.7686 17.0054H46.8896V20.4966H49.9536C50.4541 20.4966 51.0278 20.4233 51.6748 20.2524C52.3218 20.0938 52.7979 19.8862 53.1274 19.6299L54.7632 24ZM62.9907 24H55.5566C55.813 23.6704 56.0205 23.1211 56.1914 22.3765C56.3501 21.6196 56.4355 20.9971 56.4355 20.4966V17.0054C56.4355 16.749 56.3501 16.4438 56.1914 16.0654C56.0205 15.687 55.813 15.4185 55.5566 15.2476C55.813 15.0889 56.0205 14.8081 56.1914 14.4419C56.3501 14.0635 56.4355 13.7461 56.4355 13.502V9.99854C56.4355 9.49805 56.3501 8.87549 56.1914 8.13086C56.0205 7.37402 55.813 6.83691 55.5566 6.49512H62.9907C64.1992 6.49512 65.2979 6.71484 66.2988 7.12988C67.2876 7.54492 68.0811 8.14307 68.6548 8.92432C69.2407 9.70557 69.5459 10.6455 69.5581 11.7441C69.5581 13.1602 69.0454 14.332 68.02 15.272C69.0088 16.1753 69.5215 17.335 69.5581 18.7388C69.5581 19.7886 69.2651 20.7041 68.667 21.4976C68.0811 22.2788 67.2876 22.9014 66.2988 23.3408C65.2979 23.7803 64.1992 24 62.9907 24ZM62.9907 13.502C63.6865 13.502 64.2236 13.3311 64.6021 12.9893C64.9805 12.6475 65.1758 12.2324 65.1758 11.7441C65.1758 11.2437 65.0049 10.8408 64.6509 10.499C64.2969 10.1694 63.7476 9.99854 62.9907 9.99854H60.8057V13.502H62.9907ZM62.9907 20.4966C63.6865 20.4966 64.2236 20.3257 64.6021 19.9839C64.9805 19.6543 65.1758 19.2271 65.1758 18.7388C65.1758 18.2505 65.0049 17.8354 64.6509 17.5059C64.2969 17.1641 63.7476 17.0054 62.9907 17.0054H60.8057V20.4966H62.9907ZM85.6226 24L80.4956 23.9878V24H79.6167C79.8364 23.7314 79.9463 23.2554 79.9463 22.5596C79.9463 21.4365 79.7632 20.4966 79.397 19.7275C79.0918 19.0806 78.5547 18.751 77.8101 18.751H76.1133V20.4966C76.1133 20.9971 76.1987 21.6196 76.3574 22.3765C76.5283 23.1211 76.7358 23.6704 76.9922 24H70.8643C71.1206 23.6704 71.3281 23.1211 71.499 22.3765C71.6577 21.6196 71.7432 20.9971 71.7432 20.4966V17.0054C71.7432 16.749 71.6577 16.4438 71.499 16.0654C71.3281 15.687 71.1206 15.4185 70.8643 15.2476C71.1206 15.0889 71.3281 14.8081 71.499 14.4419C71.6577 14.0635 71.7432 13.7461 71.7432 13.502V9.99854C71.7432 9.49805 71.6577 8.87549 71.499 8.13086C71.3281 7.37402 71.1206 6.83691 70.8643 6.49512H78.3105C79.519 6.49512 80.6177 6.71484 81.6064 7.14209C82.6074 7.58154 83.3887 8.25293 83.9868 9.15625C84.5728 10.0596 84.8657 11.2192 84.8657 12.623C84.8657 14.8569 84.0967 16.5049 82.5708 17.5669C83.2788 18.519 83.8281 19.7031 84.2065 21.1313C84.3896 21.6685 84.6216 22.2178 84.9023 22.7793C85.1709 23.3286 85.415 23.7437 85.6226 24ZM78.3105 15.2476C79.751 15.2476 80.4834 14.3809 80.4956 12.623C80.4956 11.7563 80.3247 11.0972 79.9951 10.6577C79.6655 10.2183 79.104 9.99854 78.3105 9.99854H76.1133V15.2476H78.3105ZM101.455 24H95.2905C95.5713 23.6582 95.7056 23.0112 95.7056 22.0469C95.7056 21.4854 95.6567 20.9604 95.5469 20.4966H92.0435C91.9336 20.9727 91.8726 21.4976 91.8726 22.0713C91.8726 23.0234 92.0068 23.6582 92.2876 24H86.123C86.3916 23.6704 86.709 23.1333 87.063 22.4009C87.4048 21.6807 87.6733 21.0337 87.8442 20.4966L88.8696 17.0542C88.9185 16.8955 88.9429 16.7124 88.9429 16.4927C88.9429 15.8823 88.8086 15.4185 88.54 15.1255C88.833 15.04 89.1138 14.8447 89.3701 14.5396C89.6265 14.2344 89.7974 13.9536 89.8828 13.6973L90.9937 9.99854C91.2744 9.03418 91.4209 8.21631 91.4209 7.53271C91.4209 7.08105 91.3354 6.73926 91.1646 6.49512H96.4136C96.2427 6.73926 96.1572 7.08105 96.1572 7.52051C96.1572 8.21631 96.3037 9.03418 96.5967 9.99854L97.6953 13.6973C97.7808 13.9536 97.9517 14.2344 98.208 14.5396C98.4644 14.8447 98.7451 15.04 99.0381 15.1255C98.7695 15.4307 98.6353 15.8945 98.6353 16.5049C98.6353 16.7124 98.6597 16.8955 98.7085 17.0542L99.7461 20.4966C99.917 21.0337 100.173 21.6807 100.527 22.4009C100.869 23.1333 101.187 23.6704 101.455 24ZM94.668 17.0054L93.7891 13.502L92.9224 17.0054H94.668ZM109.622 24H102.188C102.444 23.6704 102.651 23.1211 102.822 22.3765C102.981 21.6196 103.066 20.9971 103.066 20.4966V17.0054C103.066 16.749 102.981 16.4438 102.822 16.0654C102.651 15.687 102.444 15.4185 102.188 15.2476C102.444 15.0889 102.651 14.8081 102.822 14.4419C102.981 14.0635 103.066 13.7461 103.066 13.502V9.99854C103.066 9.49805 102.981 8.87549 102.822 8.13086C102.651 7.37402 102.444 6.83691 102.188 6.49512H109.622C110.83 6.49512 111.941 6.73926 112.93 7.20312C113.918 7.6792 114.712 8.38721 115.31 9.31494C115.896 10.2427 116.189 11.4023 116.189 12.7695V13.5996C116.213 13.8804 116.299 14.1855 116.458 14.5273C116.616 14.8569 116.812 15.1011 117.056 15.2476C116.812 15.4062 116.616 15.6504 116.458 15.98C116.299 16.3096 116.213 16.6147 116.189 16.9077V17.7378C116.189 19.105 115.896 20.2524 115.31 21.1924C114.712 22.1201 113.918 22.8159 112.93 23.292C111.941 23.7681 110.83 24 109.622 24ZM109.622 20.4966C110.11 20.4966 110.513 20.3623 110.842 20.0815C111.16 19.8008 111.404 19.4102 111.562 18.9341C111.733 18.458 111.807 17.9331 111.807 17.3472V17.0054C111.807 16.749 111.733 16.4438 111.562 16.0654C111.404 15.687 111.184 15.4185 110.928 15.2476C111.184 15.0889 111.404 14.8081 111.562 14.4419C111.733 14.0635 111.807 13.7461 111.807 13.502C111.807 12.6841 111.746 12.0371 111.599 11.561C111.282 10.5234 110.623 9.99854 109.622 9.99854H107.437V13.5264C107.449 13.8071 107.534 14.1123 107.693 14.4785C107.852 14.8325 108.059 15.0889 108.315 15.2476C108.059 15.4185 107.852 15.6748 107.693 16.0288C107.534 16.395 107.449 16.7002 107.437 16.981V20.4966H109.622ZM131.558 24H125.393C125.674 23.6582 125.808 23.0112 125.808 22.0469C125.808 21.4854 125.759 20.9604 125.649 20.4966H122.146C122.036 20.9727 121.975 21.4976 121.975 22.0713C121.975 23.0234 122.109 23.6582 122.39 24H116.226C116.494 23.6704 116.812 23.1333 117.166 22.4009C117.507 21.6807 117.776 21.0337 117.947 20.4966L118.972 17.0542C119.021 16.8955 119.045 16.7124 119.045 16.4927C119.045 15.8823 118.911 15.4185 118.643 15.1255C118.936 15.04 119.216 14.8447 119.473 14.5396C119.729 14.2344 119.9 13.9536 119.985 13.6973L121.096 9.99854C121.377 9.03418 121.523 8.21631 121.523 7.53271C121.523 7.08105 121.438 6.73926 121.267 6.49512H126.516C126.345 6.73926 126.26 7.08105 126.26 7.52051C126.26 8.21631 126.406 9.03418 126.699 9.99854L127.798 13.6973C127.883 13.9536 128.054 14.2344 128.311 14.5396C128.567 14.8447 128.848 15.04 129.141 15.1255C128.872 15.4307 128.738 15.8945 128.738 16.5049C128.738 16.7124 128.762 16.8955 128.811 17.0542L129.849 20.4966C130.02 21.0337 130.276 21.6807 130.63 22.4009C130.972 23.1333 131.289 23.6704 131.558 24ZM124.771 17.0054L123.892 13.502L123.025 17.0054H124.771ZM135.915 24V14.06H137.847V22.306H142.915V24H135.915ZM147.242 24.14C146.645 24.14 146.108 24.042 145.632 23.846C145.156 23.6407 144.75 23.3607 144.414 23.006C144.087 22.6513 143.835 22.2453 143.658 21.788C143.481 21.3307 143.392 20.85 143.392 20.346C143.392 19.8327 143.481 19.3473 143.658 18.89C143.835 18.4327 144.087 18.0267 144.414 17.672C144.75 17.3173 145.156 17.042 145.632 16.846C146.108 16.6407 146.645 16.538 147.242 16.538C147.839 16.538 148.371 16.6407 148.838 16.846C149.314 17.042 149.72 17.3173 150.056 17.672C150.392 18.0267 150.644 18.4327 150.812 18.89C150.989 19.3473 151.078 19.8327 151.078 20.346C151.078 20.85 150.989 21.3307 150.812 21.788C150.644 22.2453 150.392 22.6513 150.056 23.006C149.729 23.3607 149.328 23.6407 148.852 23.846C148.376 24.042 147.839 24.14 147.242 24.14ZM145.324 20.346C145.324 20.7753 145.408 21.158 145.576 21.494C145.744 21.8207 145.973 22.0773 146.262 22.264C146.551 22.4507 146.878 22.544 147.242 22.544C147.597 22.544 147.919 22.4507 148.208 22.264C148.497 22.068 148.726 21.8067 148.894 21.48C149.071 21.144 149.16 20.7613 149.16 20.332C149.16 19.912 149.071 19.534 148.894 19.198C148.726 18.862 148.497 18.6007 148.208 18.414C147.919 18.2273 147.597 18.134 147.242 18.134C146.878 18.134 146.551 18.232 146.262 18.428C145.973 18.6147 145.744 18.876 145.576 19.212C145.408 19.5387 145.324 19.9167 145.324 20.346ZM152.274 21.256V16.664H154.15V20.85C154.15 21.41 154.253 21.8347 154.458 22.124C154.664 22.404 154.967 22.544 155.368 22.544C155.611 22.544 155.849 22.4973 156.082 22.404C156.325 22.3013 156.544 22.152 156.74 21.956C156.946 21.76 157.118 21.5127 157.258 21.214V16.664H159.134V21.9C159.134 22.096 159.167 22.236 159.232 22.32C159.307 22.404 159.424 22.4553 159.582 22.474V24C159.396 24.028 159.237 24.0467 159.106 24.056C158.985 24.0747 158.873 24.084 158.77 24.084C158.434 24.084 158.159 24.0093 157.944 23.86C157.739 23.7013 157.618 23.4867 157.58 23.216L157.538 22.628C157.212 23.1227 156.792 23.5007 156.278 23.762C155.765 24.014 155.2 24.14 154.584 24.14C153.828 24.14 153.254 23.8973 152.862 23.412C152.47 22.9173 152.274 22.1987 152.274 21.256ZM167.817 24H165.941V19.884C165.941 19.296 165.838 18.8667 165.633 18.596C165.427 18.3253 165.143 18.19 164.779 18.19C164.527 18.19 164.27 18.2553 164.009 18.386C163.757 18.5167 163.528 18.6987 163.323 18.932C163.117 19.156 162.968 19.4173 162.875 19.716V24H160.999V16.664H162.693V18.022C162.879 17.7047 163.117 17.4387 163.407 17.224C163.696 17 164.027 16.832 164.401 16.72C164.783 16.5987 165.185 16.538 165.605 16.538C166.062 16.538 166.435 16.622 166.725 16.79C167.023 16.9487 167.247 17.168 167.397 17.448C167.555 17.7187 167.663 18.0267 167.719 18.372C167.784 18.7173 167.817 19.0673 167.817 19.422V24ZM172.318 24.042C171.832 24.042 171.384 23.9487 170.974 23.762C170.572 23.566 170.222 23.2953 169.924 22.95C169.634 22.6047 169.41 22.208 169.252 21.76C169.093 21.312 169.014 20.836 169.014 20.332C169.014 19.8 169.098 19.3053 169.266 18.848C169.434 18.3907 169.667 17.9893 169.966 17.644C170.274 17.2893 170.633 17.0187 171.044 16.832C171.464 16.636 171.926 16.538 172.43 16.538C172.999 16.538 173.498 16.6687 173.928 16.93C174.357 17.182 174.712 17.5227 174.992 17.952V16.664H176.63V23.65C176.63 24.378 176.452 24.9987 176.098 25.512C175.752 26.0347 175.272 26.4313 174.656 26.702C174.04 26.982 173.34 27.122 172.556 27.122C171.762 27.122 171.09 26.9867 170.54 26.716C169.989 26.4547 169.518 26.0813 169.126 25.596L170.148 24.602C170.428 24.9473 170.778 25.218 171.198 25.414C171.627 25.61 172.08 25.708 172.556 25.708C172.957 25.708 173.321 25.6333 173.648 25.484C173.984 25.344 174.25 25.12 174.446 24.812C174.651 24.5133 174.754 24.126 174.754 23.65V22.726C174.511 23.146 174.166 23.4727 173.718 23.706C173.279 23.93 172.812 24.042 172.318 24.042ZM172.948 22.544C173.153 22.544 173.349 22.5113 173.536 22.446C173.722 22.3807 173.895 22.292 174.054 22.18C174.212 22.068 174.352 21.9373 174.474 21.788C174.595 21.6293 174.688 21.4707 174.754 21.312V19.562C174.642 19.2727 174.483 19.0207 174.278 18.806C174.082 18.5913 173.858 18.428 173.606 18.316C173.363 18.1947 173.106 18.134 172.836 18.134C172.546 18.134 172.285 18.1947 172.052 18.316C171.818 18.4373 171.618 18.61 171.45 18.834C171.282 19.0487 171.151 19.2913 171.058 19.562C170.974 19.8233 170.932 20.0987 170.932 20.388C170.932 20.6867 170.983 20.9667 171.086 21.228C171.188 21.4893 171.328 21.718 171.506 21.914C171.692 22.11 171.907 22.264 172.15 22.376C172.402 22.488 172.668 22.544 172.948 22.544ZM181.723 24.14C181.135 24.14 180.603 24.042 180.127 23.846C179.651 23.6407 179.245 23.3653 178.909 23.02C178.573 22.6653 178.311 22.264 178.125 21.816C177.947 21.3587 177.859 20.878 177.859 20.374C177.859 19.674 178.013 19.0347 178.321 18.456C178.638 17.8773 179.086 17.4153 179.665 17.07C180.253 16.7153 180.943 16.538 181.737 16.538C182.539 16.538 183.225 16.7153 183.795 17.07C184.364 17.4153 184.798 17.8773 185.097 18.456C185.405 19.0253 185.559 19.6413 185.559 20.304C185.559 20.416 185.554 20.5327 185.545 20.654C185.535 20.766 185.526 20.8593 185.517 20.934H179.847C179.884 21.3073 179.991 21.634 180.169 21.914C180.355 22.194 180.589 22.4087 180.869 22.558C181.158 22.698 181.466 22.768 181.793 22.768C182.166 22.768 182.516 22.6793 182.843 22.502C183.179 22.3153 183.407 22.0727 183.529 21.774L185.139 22.222C184.961 22.5953 184.705 22.9267 184.369 23.216C184.042 23.5053 183.655 23.734 183.207 23.902C182.759 24.0607 182.264 24.14 181.723 24.14ZM179.805 19.744H183.641C183.603 19.3707 183.496 19.0487 183.319 18.778C183.151 18.498 182.927 18.2833 182.647 18.134C182.367 17.9753 182.054 17.896 181.709 17.896C181.373 17.896 181.065 17.9753 180.785 18.134C180.514 18.2833 180.29 18.498 180.113 18.778C179.945 19.0487 179.842 19.3707 179.805 19.744ZM196.715 24L192.039 19.044C191.647 18.624 191.33 18.2647 191.087 17.966C190.854 17.658 190.686 17.378 190.583 17.126C190.48 16.874 190.429 16.6033 190.429 16.314C190.429 15.838 190.546 15.4227 190.779 15.068C191.022 14.704 191.348 14.424 191.759 14.228C192.179 14.032 192.646 13.934 193.159 13.934C193.626 13.934 194.055 14.018 194.447 14.186C194.848 14.3447 195.175 14.5873 195.427 14.914C195.679 15.2407 195.805 15.6467 195.805 16.132C195.805 16.5707 195.693 16.9673 195.469 17.322C195.254 17.6767 194.965 18.0033 194.601 18.302C194.237 18.6007 193.826 18.89 193.369 19.17C193.033 19.3847 192.725 19.5947 192.445 19.8C192.174 20.0053 191.96 20.2247 191.801 20.458C191.652 20.682 191.577 20.9293 191.577 21.2C191.577 21.4613 191.652 21.704 191.801 21.928C191.95 22.152 192.156 22.334 192.417 22.474C192.688 22.6047 192.986 22.67 193.313 22.67C193.714 22.67 194.102 22.572 194.475 22.376C194.858 22.18 195.198 21.9047 195.497 21.55C195.796 21.186 196.029 20.752 196.197 20.248C196.374 19.744 196.463 19.1793 196.463 18.554H197.989C197.989 19.4407 197.854 20.2293 197.583 20.92C197.312 21.6013 196.948 22.1847 196.491 22.67C196.034 23.146 195.516 23.51 194.937 23.762C194.358 24.014 193.756 24.14 193.131 24.14C192.45 24.14 191.857 24.0047 191.353 23.734C190.849 23.454 190.457 23.09 190.177 22.642C189.906 22.194 189.771 21.7087 189.771 21.186C189.771 20.6633 189.892 20.206 190.135 19.814C190.378 19.422 190.686 19.0767 191.059 18.778C191.432 18.47 191.806 18.1993 192.179 17.966C192.59 17.7047 192.935 17.4853 193.215 17.308C193.495 17.1213 193.71 16.9393 193.859 16.762C194.008 16.5753 194.083 16.3747 194.083 16.16C194.083 15.908 193.994 15.7073 193.817 15.558C193.649 15.3993 193.43 15.32 193.159 15.32C192.954 15.32 192.772 15.362 192.613 15.446C192.464 15.53 192.347 15.642 192.263 15.782C192.179 15.922 192.137 16.0807 192.137 16.258C192.137 16.3887 192.174 16.5193 192.249 16.65C192.333 16.7807 192.473 16.9533 192.669 17.168C192.874 17.3733 193.154 17.6673 193.509 18.05L199.179 24H196.715ZM211.585 21.438C211.585 21.998 211.44 22.4693 211.151 22.852C210.862 23.2253 210.47 23.51 209.975 23.706C209.49 23.902 208.958 24 208.379 24H203.577V14.06H208.897C209.364 14.06 209.765 14.186 210.101 14.438C210.446 14.6807 210.708 14.998 210.885 15.39C211.072 15.7727 211.165 16.174 211.165 16.594C211.165 17.07 211.044 17.5227 210.801 17.952C210.558 18.3813 210.204 18.6987 209.737 18.904C210.306 19.072 210.754 19.3753 211.081 19.814C211.417 20.2527 211.585 20.794 211.585 21.438ZM209.639 21.074C209.639 20.822 209.588 20.598 209.485 20.402C209.382 20.1967 209.242 20.038 209.065 19.926C208.897 19.8047 208.701 19.744 208.477 19.744H205.509V22.362H208.379C208.612 22.362 208.822 22.306 209.009 22.194C209.205 22.0727 209.359 21.914 209.471 21.718C209.583 21.522 209.639 21.3073 209.639 21.074ZM205.509 15.712V18.218H208.085C208.3 18.218 208.496 18.1667 208.673 18.064C208.85 17.9613 208.99 17.8167 209.093 17.63C209.205 17.4433 209.261 17.2193 209.261 16.958C209.261 16.706 209.21 16.4867 209.107 16.3C209.014 16.1133 208.883 15.9687 208.715 15.866C208.556 15.7633 208.374 15.712 208.169 15.712H205.509ZM212.407 21.83C212.407 21.354 212.537 20.9387 212.799 20.584C213.069 20.22 213.443 19.94 213.919 19.744C214.395 19.548 214.941 19.45 215.557 19.45C215.865 19.45 216.177 19.4733 216.495 19.52C216.812 19.5667 217.087 19.6413 217.321 19.744V19.352C217.321 18.8853 217.181 18.526 216.901 18.274C216.63 18.022 216.224 17.896 215.683 17.896C215.281 17.896 214.899 17.966 214.535 18.106C214.171 18.246 213.788 18.4513 213.387 18.722L212.785 17.49C213.27 17.1727 213.765 16.9347 214.269 16.776C214.782 16.6173 215.319 16.538 215.879 16.538C216.924 16.538 217.736 16.7993 218.315 17.322C218.903 17.8447 219.197 18.5913 219.197 19.562V21.9C219.197 22.096 219.229 22.236 219.295 22.32C219.369 22.404 219.486 22.4553 219.645 22.474V24C219.477 24.028 219.323 24.0513 219.183 24.07C219.052 24.0887 218.94 24.098 218.847 24.098C218.473 24.098 218.189 24.014 217.993 23.846C217.806 23.678 217.689 23.4727 217.643 23.23L217.601 22.852C217.283 23.2627 216.887 23.58 216.411 23.804C215.935 24.028 215.449 24.14 214.955 24.14C214.469 24.14 214.031 24.042 213.639 23.846C213.256 23.6407 212.953 23.3653 212.729 23.02C212.514 22.6653 212.407 22.2687 212.407 21.83ZM216.971 22.208C217.073 22.096 217.157 21.984 217.223 21.872C217.288 21.76 217.321 21.6573 217.321 21.564V20.822C217.097 20.7287 216.854 20.6587 216.593 20.612C216.331 20.556 216.084 20.528 215.851 20.528C215.365 20.528 214.964 20.6353 214.647 20.85C214.339 21.0553 214.185 21.3307 214.185 21.676C214.185 21.8627 214.236 22.04 214.339 22.208C214.441 22.376 214.591 22.5113 214.787 22.614C214.983 22.7167 215.216 22.768 215.487 22.768C215.767 22.768 216.042 22.7167 216.313 22.614C216.583 22.502 216.803 22.3667 216.971 22.208ZM225.318 18.288C224.748 18.288 224.24 18.4 223.792 18.624C223.344 18.8387 223.022 19.1513 222.826 19.562V24H220.95V16.664H222.672V18.232C222.933 17.728 223.264 17.3313 223.666 17.042C224.067 16.7527 224.492 16.594 224.94 16.566C225.042 16.566 225.122 16.566 225.178 16.566C225.234 16.566 225.28 16.5707 225.318 16.58V18.288Z" fill="black"/>
<path d="M30 29H154" stroke="black" stroke-width="2" stroke-linecap="round"/>
<path d="M1 2H125" stroke="black" stroke-width="2" stroke-linecap="round"/>
<path d="M133 9H154" stroke="black" stroke-width="2" stroke-linecap="round"/>
<path d="M158 9H164" stroke="black" stroke-width="2" stroke-linecap="round"/>
<path d="M201 28H222" stroke="black" stroke-width="2" stroke-linecap="round"/>
<path d="M226 28H232" stroke="black" stroke-width="2" stroke-linecap="round"/>
</svg>
