<svg width="13" height="12" viewBox="0 0 13 12" fill="none" xmlns="http://www.w3.org/2000/svg">
<path id="plus-icon" d="M6.26834 0C2.98463 0 0.317116 2.68938 0.317116 6C0.317116 9.31062 2.98463 12 6.26834 12C9.55204 12 12.2196 9.31062 12.2196 6C12.2196 2.68938 9.55204 0 6.26834 0ZM6.26834 0.521739C9.27236 0.521739 11.7021 2.97135 11.7021 6C11.7021 9.02865 9.27236 11.4783 6.26834 11.4783C3.26431 11.4783 0.834613 9.02865 0.834613 6C0.834613 2.97135 3.26431 0.521739 6.26834 0.521739ZM6.00959 2.86957V5.73913H3.16335V6.26087H6.00959V9.13043H6.52708V6.26087H9.37332V5.73913H6.52708V2.86957H6.00959Z" fill="black"/>
</svg>
