<svg width="39" height="39" viewBox="0 0 39 39" fill="none" xmlns="http://www.w3.org/2000/svg">
<g clip-path="url(#clip0_168_3359)">
<g filter="url(#filter0_f_168_3359)">
<path d="M12.2235 30.0843L12.7082 30.3709C14.744 31.5768 17.0782 32.2147 19.4586 32.2158H19.4636C26.7738 32.2158 32.7231 26.2792 32.7262 18.9825C32.7275 15.4466 31.3492 12.1216 28.8452 9.62038C27.617 8.38686 26.1559 7.40873 24.5465 6.74261C22.937 6.07648 21.2112 5.7356 19.4688 5.73969C12.153 5.73969 6.20343 11.6757 6.20083 18.9719C6.19722 21.4633 6.90017 23.9049 8.22839 26.0144L8.54395 26.5149L7.20388 31.3978L12.2235 30.0843ZM3.37256 35.1806L5.63652 26.9305C4.24028 24.5161 3.50572 21.777 3.50659 18.9708C3.51027 10.1921 10.668 3.05017 19.4638 3.05017C23.7321 3.05234 27.7385 4.7102 30.7515 7.71965C33.7646 10.7291 35.4224 14.7293 35.4209 18.9836C35.417 27.7617 28.2581 34.9049 19.4636 34.9049H19.4567C16.7863 34.9038 14.1623 34.2351 11.8316 32.9667L3.37256 35.1806Z" fill="#B3B3B3"/>
</g>
<path d="M3.20898 35.0169L5.47294 26.7668C4.0743 24.3466 3.33963 21.6011 3.34301 18.8071C3.3467 10.0284 10.5044 2.88647 19.3003 2.88647C23.5686 2.88864 27.5749 4.54651 30.588 7.55595C33.601 10.5654 35.2588 14.5656 35.2573 18.8199C35.2534 27.598 28.0945 34.7412 19.3 34.7412H19.2931C16.6227 34.7401 13.9987 34.0714 11.668 32.803L3.20898 35.0169Z" fill="white"/>
<path d="M19.3051 5.57596C11.9893 5.57596 6.03973 11.5119 6.03712 18.8082C6.03352 21.2996 6.73646 23.7412 8.06469 25.8507L8.38024 26.3514L7.04017 31.2343L12.06 29.9206L12.5447 30.2072C14.5805 31.4131 16.9147 32.0508 19.2951 32.0521H19.3001C26.6103 32.0521 32.5599 26.1154 32.5627 18.8188C32.5682 17.0796 32.228 15.3567 31.5619 13.7497C30.8957 12.1427 29.9167 10.6835 28.6817 9.45666C27.4535 8.22311 25.9924 7.24497 24.3829 6.57884C22.7734 5.91272 21.0475 5.57185 19.3051 5.57596Z" fill="url(#paint0_linear_168_3359)"/>
<path fill-rule="evenodd" clip-rule="evenodd" d="M15.3121 12.1511C15.0132 11.4885 14.6988 11.4751 14.4149 11.4637L13.6506 11.4543C13.3847 11.4543 12.9527 11.5539 12.5875 11.9522C12.2223 12.3505 11.1919 13.3131 11.1919 15.271C11.1919 17.2289 12.6207 19.1207 12.8198 19.3865C13.0189 19.6523 15.578 23.7982 19.6307 25.3933C22.9986 26.7189 23.6839 26.4552 24.4152 26.389C25.1465 26.3228 26.7742 25.4264 27.1062 24.4971C27.4382 23.5679 27.4384 22.7717 27.3389 22.6053C27.2394 22.4388 26.9735 22.3399 26.5744 22.1408C26.1754 21.9416 24.2155 20.979 23.85 20.8461C23.4846 20.7132 23.2189 20.6472 22.9528 21.0455C22.6867 21.4438 21.9235 22.3397 21.6908 22.6053C21.4581 22.8709 21.2258 22.9042 20.8268 22.7053C20.4277 22.5064 19.1438 22.086 17.6205 20.7303C16.4353 19.6755 15.6352 18.3728 15.4023 17.9748C15.1694 17.5767 15.3776 17.3611 15.5775 17.1628C15.7565 16.9845 15.9762 16.6981 16.1759 16.4658C16.3756 16.2336 16.4414 16.0675 16.5741 15.8024C16.7068 15.5372 16.6407 15.3043 16.5409 15.1054C16.4411 14.9065 15.6665 12.9382 15.3121 12.1511Z" fill="white"/>
</g>
<defs>
<filter id="filter0_f_168_3359" x="-3.68944" y="-4.01183" width="46.1723" height="46.2545" filterUnits="userSpaceOnUse" color-interpolation-filters="sRGB">
<feFlood flood-opacity="0" result="BackgroundImageFix"/>
<feBlend mode="normal" in="SourceGraphic" in2="BackgroundImageFix" result="shape"/>
<feGaussianBlur stdDeviation="3.531" result="effect1_foregroundBlur_168_3359"/>
</filter>
<linearGradient id="paint0_linear_168_3359" x1="19.0299" y1="7.16478" x2="19.1638" y2="29.7903" gradientUnits="userSpaceOnUse">
<stop stop-color="#57D163"/>
<stop offset="1" stop-color="#23B33A"/>
</linearGradient>
<clipPath id="clip0_168_3359">
<rect width="38" height="38" fill="white" transform="translate(0.396973 0.115356)"/>
</clipPath>
</defs>
</svg>
